<svg width="71" height="69" viewBox="0 0 71 69" fill="none" xmlns="http://www.w3.org/2000/svg">
<rect x="0.568115" y="0.459656" width="69.7328" height="68.0485" rx="34.0243" fill="url(#paint0_linear_47_436)"/>
<rect x="2.04743" y="1.93897" width="66.7742" height="65.0899" rx="32.5449" stroke="#222425" stroke-opacity="0.2" stroke-width="2.95863"/>
<path d="M52.8891 32.4333L35.0131 51.3587C34.4159 51.9907 33.619 52.3976 32.7569 52.5107C31.8947 52.6238 31.0199 52.4362 30.2799 51.9795C29.5399 51.5229 28.98 50.8251 28.6945 50.0038C28.4089 49.1824 28.4153 48.2878 28.7124 47.4706L31.5512 39.6615H24.939C24.2971 39.6615 23.6649 39.5042 23.0979 39.2033C22.5308 38.9024 22.0461 38.4671 21.6863 37.9355C21.3264 37.4039 21.1023 36.7922 21.0336 36.154C20.9649 35.5157 21.0537 34.8703 21.2922 34.2743L26.7332 20.6729C27.1195 19.7106 27.7846 18.8859 28.6431 18.3045C29.5016 17.7231 30.5143 17.4116 31.5512 17.4101H40.9202C43.1875 17.4101 44.7545 19.6751 43.9605 21.7972L42.0913 26.7791H50.4508C51.1057 26.7791 51.7463 26.9709 52.2934 27.3309C52.8405 27.6909 53.2701 28.2033 53.5292 28.8047C53.7883 29.4062 53.8656 30.0704 53.7514 30.7152C53.6372 31.3601 53.339 31.9574 52.8891 32.4333Z" fill="#222425"/>
<defs>
<linearGradient id="paint0_linear_47_436" x1="19.7201" y1="2.92518" x2="46.4235" y2="64.9767" gradientUnits="userSpaceOnUse">
<stop stop-color="white" stop-opacity="0.04"/>
<stop offset="1" stop-color="#222425" stop-opacity="0.1"/>
</linearGradient>
</defs>
</svg>
