<svg width="70" height="69" viewBox="0 0 70 69" fill="none" xmlns="http://www.w3.org/2000/svg">
<rect x="0.0331421" y="0.459656" width="69.7328" height="68.0485" rx="34.0243" fill="url(#paint0_linear_47_441)"/>
<rect x="1.51246" y="1.93897" width="66.7742" height="65.0899" rx="32.5449" stroke="#222425" stroke-opacity="0.2" stroke-width="2.95863"/>
<path d="M39.2814 20.493C42.9182 22.2888 45.7498 23.6875 49.6248 21.8011C49.9131 21.6606 50.2324 21.5958 50.5527 21.6128C50.8729 21.6297 51.1836 21.7279 51.4555 21.8981C51.7274 22.0682 51.9515 22.3047 52.1067 22.5854C52.262 22.866 52.3432 23.1816 52.3429 23.5023V41.5352C52.3433 41.8898 52.2438 42.2374 52.056 42.5383C51.8681 42.8391 51.5994 43.081 51.2806 43.2364C45.6458 45.9772 41.1073 43.69 37.5764 41.9113C37.1862 41.7125 36.7943 41.5172 36.4007 41.3253C34.448 40.3859 32.8338 39.7905 31.1912 39.8699C29.7546 39.9379 28.0307 40.5447 25.8796 42.5086V53.9616C25.8796 54.4629 25.6804 54.9437 25.326 55.2982C24.9715 55.6527 24.4907 55.8518 23.9894 55.8518C23.488 55.8518 23.0072 55.6527 22.6528 55.2982C22.2983 54.9437 22.0991 54.4629 22.0991 53.9616V23.663C22.0994 23.4133 22.1492 23.1661 22.2455 22.9358C22.3419 22.7054 22.4829 22.4964 22.6605 22.3209C25.5375 19.4742 28.2689 18.1907 31.0097 18.0584C33.6693 17.9299 36.0245 18.9147 38.0414 19.8863C38.4661 20.0917 38.8788 20.2933 39.2795 20.4911L39.2814 20.493Z" fill="#222425"/>
<defs>
<linearGradient id="paint0_linear_47_441" x1="19.1851" y1="2.92518" x2="45.8885" y2="64.9767" gradientUnits="userSpaceOnUse">
<stop stop-color="white" stop-opacity="0.04"/>
<stop offset="1" stop-color="#222425" stop-opacity="0.1"/>
</linearGradient>
</defs>
</svg>
